<?xml version="1.0" encoding="UTF-8"?>
<!DOCTYPE svg PUBLIC "-//W3C//DTD SVG 1.1//EN" "http://www.w3.org/Graphics/SVG/1.1/DTD/svg11.dtd">
<!-- Creator: CorelDRAW X5 -->
<svg xmlns="http://www.w3.org/2000/svg" xml:space="preserve" width="84.6666mm" height="84.6666mm" style="shape-rendering:geometricPrecision; text-rendering:geometricPrecision; image-rendering:optimizeQuality; fill-rule:evenodd; clip-rule:evenodd"
viewBox="0 0 84.6666 84.6666"
 xmlns:xlink="http://www.w3.org/1999/xlink">
 <defs>
  <style type="text/css">
   <![CDATA[
    .fil0 {fill:#010101}
   ]]>
  </style>
 </defs>
 <g id="Layer_x0020_1">
  <metadata id="CorelCorpID_0Corel-Layer"/>
  <g id="_261183120">
   <path id="_261179160" class="fil0" d="M54.0401 69.043l0 -1.9184 17.1182 0c0,1.2281 0.3004,4.4271 -2.0661,4.4271l-12.691 0c-1.4002,0 -2.3611,-1.1323 -2.3611,-2.5087zm0 -27.8906l17.1182 0 0 23.7586 -17.1182 0 0 -23.7586zm-39.7232 22.8769l35.2963 -0.0037c0,1.6067 -0.1057,4.6227 0.1439,6.0538 0.0975,0.5586 0.2545,0.9417 0.2988,1.4723 -2.7302,0 -30.0108,0.2027 -31.3234,-0.109 -1.5788,-0.3747 -2.2566,-0.9675 -3.1731,-1.992 -0.7571,-0.8464 -0.9818,-1.8113 -1.1025,-2.8943 -0.0977,-0.8757 0.103,-0.4807 -0.14,-2.5271zm39.7232 -27.1564c0,-1.1153 0.8244,-2.3611 1.9184,-2.3611l13.2813 0c0.9825,0 1.9185,1.1465 1.9185,2.0659l0 2.3611 -17.1182 0 0 -2.0659zm-39.696 -14.6094c0,-0.5976 -0.0821,-0.8854 0.4427,-0.8854l44.1231 0 0 8.7066c-2.219,0 -3.7259,-0.2315 -5.6123,0.7331 -2.1775,1.1135 -3.6844,3.6692 -3.6844,6.4978l0 24.4965 -35.2691 0 0.1309 -2.2399c0.0538,-0.6532 -0.1309,-0.8061 -0.1309,-1.5969 0,-0.7515 0.1255,-0.9659 0.1405,-1.4843 0.017,-0.587 -0.1405,-0.7032 -0.1405,-1.4672 0,-0.7514 0.1255,-0.9658 0.1405,-1.4841 0.017,-0.587 -0.1405,-0.7035 -0.1405,-1.4672 0,-0.7514 0.1255,-0.9658 0.1405,-1.4841 0.017,-0.5872 -0.1405,-0.7035 -0.1405,-1.4673 0,-0.7513 0.1255,-0.9657 0.1405,-1.4841 0.017,-0.5872 -0.1405,-0.7034 -0.1405,-1.4672 0,-0.7515 0.1255,-0.9659 0.1405,-1.4843 0.017,-0.587 -0.1405,-0.7034 -0.1405,-1.4672 0,-0.7514 0.1255,-0.9658 0.1405,-1.4841 0.017,-0.587 -0.1405,-0.7035 -0.1405,-1.4672 0,-0.7514 0.1255,-0.9658 0.1405,-1.4841 0.017,-0.5872 -0.1405,-0.7035 -0.1405,-1.4673 0,-0.7513 0.1255,-0.9657 0.1405,-1.4843 0.017,-0.587 -0.1405,-0.7032 -0.1405,-1.4672 0,-0.7514 0.1255,-0.9657 0.1405,-1.4841 0.017,-0.587 -0.1405,-0.7034 -0.1405,-1.4672 0,-0.7514 0.1255,-0.9658 0.1405,-1.4841 0.017,-0.5872 -0.1405,-0.7035 -0.1405,-1.4672 0,-0.7514 0.1255,-0.9658 0.1405,-1.4842 0.017,-0.5872 -0.1405,-0.7034 -0.1405,-1.4672 0,-0.7745 0.1565,-1.059 0.1405,-1.6148 -0.0152,-0.5241 -0.1405,-0.8574 -0.1405,-1.6318zm5.3125 -10.625l34.0884 0c1.4228,0 2.688,0.6831 3.4336,1.4362 0.4605,0.465 0.8225,0.8115 1.1395,1.3693 0.821,1.4451 0.5918,2.8711 0.5918,4.7206l-44.5658 0c0.0151,-0.6813 0.1476,-0.4947 0.1476,-1.0331 0,-0.5626 -0.2409,-1.2493 0.1217,-2.5344 0.6177,-2.19 2.7577,-3.9586 5.0432,-3.9586zm-9.592 5.0175l0 49.8782c0,1.2888 0.48,2.7811 0.8868,3.6879 0.8992,2.0048 2.563,3.6477 4.5233,4.626 1.0116,0.5049 2.1507,0.983 3.5916,0.983l50.4686 0c3.2424,0 6.0503,-3.4683 6.0503,-6.7881l0 -32.0226c0,-1.9608 -0.8657,-3.7548 -1.8793,-4.7612 -1.1976,-1.1892 -2.5436,-2.1745 -4.4661,-2.1745l-5.9028 0 0 -13.1337c0,-3.783 -2.3488,-7.0866 -5.3113,-8.5601 -1.0271,-0.5109 -2.1627,-1.0318 -3.6904,-1.0318l-35.269 0c-2.4817,0 -4.6483,1.3426 -6.2354,2.9138 -1.5687,1.5528 -2.7663,4.0691 -2.7663,6.3831z"/>
   <path id="_261151680" class="fil0" d="M29.8389 16.2132l13.4287 0c1.5411,0 1.3419,-2.2135 -0.1476,-2.2135l-12.8384 0c-1.7036,0 -1.504,2.2135 -0.4427,2.2135z"/>
   <path id="_261183312" class="fil0" d="M57.7294 36.4302c0,0.601 0.1159,1.3281 1.1805,1.3281l7.3786 0c1.5339,0 1.63,-2.2135 0.1474,-2.2135l-7.8211 0c-0.3554,0 -0.8854,0.53 -0.8854,0.8854z"/>
   <path id="_261172800" class="fil0" d="M33.0853 67.4197c0,0.6889 0.3441,1.033 1.0331,1.033l5.3125 0c0.9636,0 1.626,-2.2135 -0.5904,-2.2135l-4.2794 0c-0.8802,0 -1.4758,0.301 -1.4758,1.1805z"/>
   <path id="_261183432" class="fil0" d="M60.0905 68.8954c0,1.7168 0.7793,1.3281 3.9844,1.3281 1.5181,0 1.4348,-2.2135 -0.1476,-2.2135 -1.1904,0 -3.8368,-0.3273 -3.8368,0.8854z"/>
  </g>
 </g>
</svg>
