<?xml version="1.0" encoding="UTF-8"?>
<!DOCTYPE svg PUBLIC "-//W3C//DTD SVG 1.1//EN" "http://www.w3.org/Graphics/SVG/1.1/DTD/svg11.dtd">
<!-- Creator: CorelDRAW X5 -->
<svg xmlns="http://www.w3.org/2000/svg" xml:space="preserve" width="84.6666mm" height="84.6666mm" style="shape-rendering:geometricPrecision; text-rendering:geometricPrecision; image-rendering:optimizeQuality; fill-rule:evenodd; clip-rule:evenodd"
viewBox="0 0 84.6666 84.6666"
 xmlns:xlink="http://www.w3.org/1999/xlink">
 <defs>
  <style type="text/css">
   <![CDATA[
    .fil0 {fill:#010101}
   ]]>
  </style>
 </defs>
 <g id="Layer_x0020_1">
  <metadata id="CorelCorpID_0Corel-Layer"/>
  <path class="fil0" d="M63.1299 68.777c-2.2445,0 -3.5146,-0.258 -5.0987,-1.8565 -4.5012,-4.5419 -0.9469,-11.4213 4.3084,-11.4213 2.3498,0 3.4319,0.3627 5.0985,2.0144 4.0194,3.9832 1.1062,11.2634 -4.3082,11.2634zm-40.4658 -20.2329c-2.2445,0 -3.5146,-0.258 -5.0987,-1.8565 -1.9099,-1.9271 -2.0144,-3.0387 -2.0144,-5.5727 0,-2.6352 3.2024,-5.8486 5.8486,-5.8486 1.4704,0 2.5092,-0.0678 3.8878,0.6962 6.3309,3.5085 3.4382,12.5816 -2.6233,12.5816zm33.3527 -26.3976l0 -0.9484c0,-3.1227 3.042,-6.1647 6.1647,-6.1647l0.9484 0c3.1227,0 6.1647,3.042 6.1647,6.1647l0 0.9484c0,3.1253 -3.0394,6.1647 -6.1647,6.1647l-0.9484 0c-3.1227,0 -6.1647,-3.042 -6.1647,-6.1647zm-6.9551 -0.6323c0,1.7228 0.475,3.0724 0.7903,4.426 -0.5533,0.0461 -3.6469,1.4676 -4.3821,1.7826l-10.7385 4.5942c-0.7312,0.3252 -1.5023,0.7162 -2.267,0.8943 -1.2287,-1.8349 -4.5222,-3.8088 -6.9513,-4.4296 -11.2358,-2.8712 -21.3902,9.3104 -14.7744,20.3068 3.5231,5.8562 11.1211,8.1354 17.8293,4.7272 2.2171,-1.1265 0.3294,-1.4054 6.3578,1.1189 1.1402,0.4776 13.6841,5.9549 14.2941,6.0969 -0.0321,1.435 -0.3238,0.3253 0.0412,3.1203 0.6953,5.3268 5.0317,9.8841 10.1978,11.1415 2.2034,0.5362 3.8713,0.5627 6.1356,0.0581 1.804,-0.4022 3.2453,-1.111 4.7124,-2.0847 2.0949,-1.3901 3.5717,-3.3596 4.6809,-5.5936 2.1184,-4.2662 1.3505,-9.3378 -1.2035,-13.1862 -1.7837,-2.6877 -4.8575,-4.7907 -8.0602,-5.5337 -4.3542,-1.01 -9.193,0.2339 -12.1973,3.2657 -0.6521,0.6581 -1.6844,1.3898 -1.9359,2.3318 -0.539,-0.0448 -3.5859,-1.4332 -4.2723,-1.7344 -1.4143,-0.6202 -2.7585,-1.1517 -4.2095,-1.7971 -1.4549,-0.6471 -2.7444,-1.1719 -4.2076,-1.799 -0.7602,-0.3258 -1.3181,-0.5739 -2.1014,-0.902 -0.6343,-0.2654 -1.5315,-0.7428 -2.1228,-0.8806 0.0205,-0.9219 0.761,-1.8554 0.9361,-3.8062 0.2942,-3.2782 0.1006,-1.2946 -0.1456,-4.2554 0.7012,-0.1633 3.6309,-1.4652 4.4798,-1.8427l12.3903 -5.3137c0.527,-0.2218 0.7206,-0.2159 1.1497,-0.5889 2.163,1.4484 2.9472,2.5232 6.2293,3.2549 2.1873,0.4876 3.6903,0.4876 5.8776,0 3.1408,-0.7001 6.4031,-2.8561 8.1269,-5.4671 0.5106,-0.7736 0.8334,-1.3391 1.2664,-2.2112 1.2641,-2.5458 1.5143,-5.6334 0.8812,-8.4738 -0.3594,-1.6119 -1.1615,-3.4539 -2.0802,-4.7167 -0.3121,-0.429 -0.3865,-0.6266 -0.7373,-1.0014 -1.6334,-1.7453 -2.6682,-2.5865 -4.8608,-3.6752 -0.6803,-0.3379 -1.5778,-0.6465 -2.4666,-0.8528 -4.7944,-1.1123 -9.1995,0.3624 -12.5365,3.5586l-0.1582 0.1582c-0.005,0.0052 -0.1786,0.2029 -0.2227,0.2512 -1.381,1.5186 -1.3694,1.4667 -2.4299,3.577 -0.6254,1.2451 -1.3151,3.696 -1.3151,5.4818z"/>
 </g>
</svg>
