<?xml version="1.0" encoding="UTF-8"?>
<!DOCTYPE svg PUBLIC "-//W3C//DTD SVG 1.1//EN" "http://www.w3.org/Graphics/SVG/1.1/DTD/svg11.dtd">
<!-- Creator: CorelDRAW X5 -->
<svg xmlns="http://www.w3.org/2000/svg" xml:space="preserve" width="84.6666mm" height="84.6666mm" style="shape-rendering:geometricPrecision; text-rendering:geometricPrecision; image-rendering:optimizeQuality; fill-rule:evenodd; clip-rule:evenodd"
viewBox="0 0 84.6666 84.6666"
 xmlns:xlink="http://www.w3.org/1999/xlink">
 <defs>
  <style type="text/css">
   <![CDATA[
    .fil0 {fill:#212121}
   ]]>
  </style>
 </defs>
 <g id="Layer_x0020_1">
  <metadata id="CorelCorpID_0Corel-Layer"/>
  <g id="_261155568">
   <path id="_261151128" class="fil0" d="M16.9125 23.8844c2.3451,0 2.9038,0.4743 6.0428,-0.3519 1.6471,-0.4334 3.4067,-1.3869 4.5748,-2.3524 2.8868,-2.3858 4.0342,-4.4595 5.0135,-8.6638 1.6822,0.8899 4.1108,4.0854 9.592,4.0854 2.1575,0 4.2488,-0.5296 5.6872,-1.2404 0.8146,-0.4023 1.4948,-0.763 2.2326,-1.32 0.7437,-0.5614 1.2225,-1.0991 2.0275,-1.525 0.4639,1.9916 0.8425,3.4537 1.7642,4.9854 1.6683,2.7725 4.4611,5.1107 7.6832,5.9943 2.6226,0.7192 3.3485,0.3884 6.1837,0.3884 -0.4611,1.9792 -1.0227,1.5426 -1.4539,5.2971 -0.5192,4.5241 1.717,9.127 5.2586,11.6805 0.6011,0.4334 1.7044,1.0143 2.0571,1.4956 -0.7912,1.0798 -4.3443,1.8498 -6.4482,7.2294 -1.0922,2.793 -1.2961,5.6698 -0.3688,8.6466 0.3042,0.9764 0.7236,1.6035 0.9552,2.5973 -2.4894,0 -4.3316,-0.6588 -7.7587,0.9451 -1.2745,0.5967 -2.7173,1.474 -3.6576,2.3818 -1.0435,1.0077 -1.9383,2.0439 -2.6757,3.3635 -0.5927,1.0603 -1.4491,3.5955 -1.5391,4.6778 -1.2206,-0.6459 -1.9847,-1.7998 -4.1158,-2.8119 -3.547,-1.6844 -7.7484,-1.7281 -11.2812,0.0267 -2.5952,1.289 -2.8461,2.0994 -4.1423,2.7852 -1.195,-5.1297 -3.1014,-8.1134 -7.7532,-10.3648 -3.4602,-1.6746 -5.3352,-1.0034 -7.8779,-1.0034 0.5725,-2.4576 2.8226,-5.448 0.6365,-11.1165 -2.1433,-5.5578 -5.6815,-6.2419 -6.4982,-7.3568 0.2868,-0.3915 8.2555,-4.4416 7.3171,-12.9927 -0.2174,-1.9797 -0.6624,-3.7059 -1.4554,-5.4805zm-6.9275 -2.842c0,1.7025 0.8927,3.2861 1.3945,4.6447 1.109,3.0022 2.2453,5.5334 -0.0732,8.933 -2.1248,3.1157 -8.2488,4.1982 -8.2488,7.7375 0,2.4746 3.1906,3.8336 5.3649,5.2928 2.3238,1.5594 4.227,3.1278 4.227,6.7859 0,3.0913 -2.6644,6.3983 -2.6644,9.2367 0,1.9605 1.7289,3.0836 3.575,3.1765 0.7193,0.0363 0.6065,-0.112 1.3972,-0.1571 0.5734,-0.0327 1.2042,0.0317 1.7784,0.001 2.8277,-0.1508 5.2211,-0.5838 7.596,1.6392 1.1662,1.0916 1.7944,1.957 2.2463,3.7929 0.3969,1.6119 0.7766,3.2271 1.2776,4.7618 1.7703,5.4228 5.8387,2.1456 8.3726,-0.1156 2.3638,-2.1093 3.3572,-2.7962 6.6181,-2.7962 2.2748,0 3.9391,1.3524 5.4606,2.7102 2.121,1.8925 5.7234,5.1454 7.9683,1.482 0.5188,-0.8464 1.4505,-4.7221 1.7392,-5.8987 0.8031,-3.2718 3.769,-5.7539 6.3247,-5.7539l4.9806 0.1708c0.8308,0.0094 1.0121,0.1634 1.5943,0.1682 1.9662,0.0162 3.7276,-1.2063 3.7276,-3.3588 0,-3.7923 -5.0147,-7.9769 -1.3213,-13.4 0.998,-1.4656 4.4142,-3.419 6.1181,-4.5395 2.8283,-1.8601 2.9596,-4.4486 0,-6.3961 -4.1424,-2.7263 -7.4612,-3.8836 -7.4612,-9.2359 0,-3.2729 5.4,-9.7428 0.8207,-11.6561 -3.1381,-1.3113 -8.0417,1.5239 -12.1193,-1.558 -4.6258,-3.4965 -2.029,-11.8315 -7.3524,-11.8315 -1.6888,0 -3.4948,1.9041 -5.0294,3.1413 -2.5444,2.0514 -3.0165,2.7204 -6.5163,2.7204 -2.7452,0 -5.49,-2.6982 -7.6903,-4.566 -2.0088,-1.705 -4.4931,-1.8829 -5.8018,0.4882 -0.5165,0.9357 -0.7852,2.4588 -1.1362,3.6597 -0.928,3.1751 -1.5355,6.9057 -6.4261,7.7843 -2.8986,0.5207 -10.741,-1.9903 -10.741,2.9363z"/>
   <path id="_261155832" class="fil0" d="M35.2081 42.713l0 -3.5527c1.4339,0 2.6644,0.1737 2.6644,1.5987l0 0.1777c0,1.4687 -1.1776,1.7763 -2.6644,1.7763zm-4.2629 7.8156l4.2629 0 0 -4.9737c1.1029,0 0.9342,-0.0019 1.5011,0.9859l2.4068 3.9878 4.4407 0c-0.1208,-0.4523 -1.586,-2.5684 -2.0029,-3.1484 -0.7511,-1.0453 -1.3882,-2.0317 -2.0827,-3.0685 3.2741,-0.8743 4.0984,-7.9933 -2.6644,-7.9933l-5.8615 0 0 14.2102z"/>
   <polygon id="_261156744" class="fil0" points="55.8129,50.5286 64.339,50.5286 64.339,47.6865 60.0759,47.6865 60.0759,44.8445 64.339,44.8445 64.339,42.0024 60.0759,42.0024 60.0759,39.8709 64.339,39.8709 64.339,36.3184 55.8129,36.3184 "/>
   <polygon id="_261172728" class="fil0" points="45.1554,50.5286 53.6815,50.5286 53.6815,47.6865 48.7079,47.6865 48.7079,44.8445 52.971,44.8445 52.971,42.0024 48.7079,42.0024 48.7079,39.8709 53.6815,39.8709 53.6815,36.3184 45.1554,36.3184 "/>
   <polygon id="_261156120" class="fil0" points="20.2875,50.5286 24.5506,50.5286 24.5506,45.5549 28.8137,45.5549 28.8137,42.0024 24.5506,42.0024 24.5506,39.8709 28.8137,39.8709 28.8137,36.3184 20.2875,36.3184 "/>
  </g>
 </g>
</svg>
